<?xml version="1.0" encoding="UTF-8" standalone="no"?>
<!DOCTYPE svg PUBLIC "-//W3C//DTD SVG 1.1//EN"
 "http://www.w3.org/Graphics/SVG/1.1/DTD/svg11.dtd">
<!-- Generated by graphviz version 2.40.1 (20161225.0304)
 -->
<!-- Title: %0 Pages: 1 -->
<svg width="865pt" height="235pt"
 viewBox="0.00 0.00 865.36 235.40" xmlns="http://www.w3.org/2000/svg" xmlns:xlink="http://www.w3.org/1999/xlink">
<g id="graph0" class="graph" transform="scale(1 1) rotate(0) translate(4 231.4046)">
<title>%0</title>
<polygon fill="#ffffff" stroke="transparent" points="-4,4 -4,-231.4046 861.3608,-231.4046 861.3608,4 -4,4"/>
<!-- start -->
<g id="node1" class="node">
<title>start</title>
<ellipse fill="none" stroke="#000000" cx="27.6609" cy="-102.6046" rx="27.8228" ry="27.8228"/>
<text text-anchor="middle" x="27.6609" y="-98.4046" font-family="Times,serif" font-size="14.00" fill="#000000">start</text>
</g>
<!-- string -->
<g id="node2" class="node">
<title>string</title>
<ellipse fill="none" stroke="#000000" cx="189.9052" cy="-102.6046" rx="33.0624" ry="33.0624"/>
<text text-anchor="middle" x="189.9052" y="-98.4046" font-family="Times,serif" font-size="14.00" fill="#000000">string</text>
</g>
<!-- start&#45;&gt;string -->
<g id="edge1" class="edge">
<title>start&#45;&gt;string</title>
<path fill="none" stroke="#000000" d="M55.5517,-102.6046C80.5663,-102.6046 117.671,-102.6046 146.5528,-102.6046"/>
<polygon fill="#000000" stroke="#000000" points="146.7838,-106.1047 156.7838,-102.6046 146.7838,-99.1047 146.7838,-106.1047"/>
<text text-anchor="middle" x="106.098" y="-106.8046" font-family="Times,serif" font-size="14.00" fill="#000000">i=[0&#45;9]/o=1</text>
</g>
<!-- has_left -->
<g id="node3" class="node">
<title>has_left</title>
<ellipse fill="none" stroke="#000000" cx="650.0752" cy="-41.6046" rx="41.7095" ry="41.7095"/>
<text text-anchor="middle" x="650.0752" y="-37.4046" font-family="Times,serif" font-size="14.00" fill="#000000">has_left</text>
</g>
<!-- start&#45;&gt;has_left -->
<g id="edge2" class="edge">
<title>start&#45;&gt;has_left</title>
<path fill="none" stroke="#000000" d="M52.8112,-90.3018C91.9199,-71.9273 170.1844,-38.1552 240.9364,-25.8046 368.2672,-3.5774 521.132,-20.8975 599.0162,-32.7983"/>
<polygon fill="#000000" stroke="#000000" points="598.6239,-36.2794 609.0442,-34.3644 599.7041,-29.3632 598.6239,-36.2794"/>
<text text-anchor="middle" x="316.1458" y="-30.8046" font-family="Times,serif" font-size="14.00" fill="#000000">i=(/o=0 left=1</text>
</g>
<!-- illegal -->
<g id="node4" class="node">
<title>illegal</title>
<ellipse fill="none" stroke="#000000" cx="822.1877" cy="-141.6046" rx="35.347" ry="35.347"/>
<text text-anchor="middle" x="822.1877" y="-137.4046" font-family="Times,serif" font-size="14.00" fill="#000000">illegal</text>
</g>
<!-- start&#45;&gt;illegal -->
<g id="edge3" class="edge">
<title>start&#45;&gt;illegal</title>
<path fill="none" stroke="#000000" d="M45.0562,-124.46C72.2985,-156.0179 128.3213,-210.6046 189.9052,-210.6046 189.9052,-210.6046 189.9052,-210.6046 650.0752,-210.6046 698.9832,-210.6046 750.4576,-186.3038 784.2277,-166.5449"/>
<polygon fill="#000000" stroke="#000000" points="786.0673,-169.5228 792.8423,-161.3772 782.4664,-163.52 786.0673,-169.5228"/>
<text text-anchor="middle" x="442.1313" y="-214.8046" font-family="Times,serif" font-size="14.00" fill="#000000">i=else/o=0</text>
</g>
<!-- string&#45;&gt;string -->
<g id="edge5" class="edge">
<title>string&#45;&gt;string</title>
<path fill="none" stroke="#000000" d="M174.6241,-131.9714C173.7607,-143.7497 178.8545,-153.6358 189.9052,-153.6358 197.5027,-153.6358 202.2844,-148.9631 204.2506,-142.2153"/>
<polygon fill="#000000" stroke="#000000" points="207.762,-142.2484 205.1864,-131.9714 200.791,-141.6115 207.762,-142.2484"/>
<text text-anchor="middle" x="189.9052" y="-157.8358" font-family="Times,serif" font-size="14.00" fill="#000000">i=)&amp;&amp;left=0/o=1</text>
</g>
<!-- string&#45;&gt;illegal -->
<g id="edge6" class="edge">
<title>string&#45;&gt;illegal</title>
<path fill="none" stroke="#000000" d="M215.8458,-123.0579C223.5149,-128.0535 232.2053,-132.7721 240.9364,-135.6046 431.5954,-197.4581 491.2553,-153.1958 691.6798,-150.6046 726.0594,-150.1601 734.7376,-151.2965 769.0146,-148.6046 771.7065,-148.3932 774.4709,-148.1398 777.2568,-147.8568"/>
<polygon fill="#000000" stroke="#000000" points="777.8011,-151.3178 787.348,-146.7235 777.0198,-144.3615 777.8011,-151.3178"/>
<text text-anchor="middle" x="541.689" y="-168.8046" font-family="Times,serif" font-size="14.00" fill="#000000">i=else/o=0</text>
</g>
<!-- cal -->
<g id="node5" class="node">
<title>cal</title>
<ellipse fill="none" stroke="#000000" cx="442.1313" cy="-113.6046" rx="22.0891" ry="22.0891"/>
<text text-anchor="middle" x="442.1313" y="-109.4046" font-family="Times,serif" font-size="14.00" fill="#000000">cal</text>
</g>
<!-- string&#45;&gt;cal -->
<g id="edge4" class="edge">
<title>string&#45;&gt;cal</title>
<path fill="none" stroke="#000000" d="M222.8047,-106.9242C228.8271,-107.5863 235.0636,-108.1873 240.9364,-108.6046 300.3178,-112.8243 369.7762,-113.642 409.5954,-113.7169"/>
<polygon fill="#000000" stroke="#000000" points="409.7684,-117.2169 419.7698,-113.7208 409.7711,-110.2169 409.7684,-117.2169"/>
<text text-anchor="middle" x="316.1458" y="-118.8046" font-family="Times,serif" font-size="14.00" fill="#000000">i=[+*]/o=0</text>
</g>
<!-- has_left&#45;&gt;string -->
<g id="edge7" class="edge">
<title>has_left&#45;&gt;string</title>
<path fill="none" stroke="#000000" d="M608.3764,-39.3037C533.1832,-36.3858 370.6351,-35.7373 240.9364,-74.6046 236.2808,-75.9998 231.5734,-77.8589 226.9979,-79.9585"/>
<polygon fill="#000000" stroke="#000000" points="225.2281,-76.9303 217.8504,-84.5343 228.3597,-83.1908 225.2281,-76.9303"/>
<text text-anchor="middle" x="442.1313" y="-48.8046" font-family="Times,serif" font-size="14.00" fill="#000000">i=[0&#45;9]/o=0</text>
</g>
<!-- has_left&#45;&gt;illegal -->
<g id="edge8" class="edge">
<title>has_left&#45;&gt;illegal</title>
<path fill="none" stroke="#000000" d="M690.3167,-53.0612C714.3275,-60.9655 744.7616,-72.9207 769.0146,-88.8046 777.0069,-94.039 784.7895,-100.6152 791.825,-107.3327"/>
<polygon fill="#000000" stroke="#000000" points="789.5859,-110.0425 799.1406,-114.6206 794.5263,-105.0833 789.5859,-110.0425"/>
<text text-anchor="middle" x="739.3472" y="-93.8046" font-family="Times,serif" font-size="14.00" fill="#000000">i=else/o=0</text>
</g>
<!-- cal&#45;&gt;string -->
<g id="edge9" class="edge">
<title>cal&#45;&gt;string</title>
<path fill="none" stroke="#000000" d="M423.1917,-101.2927C413.9811,-96.0237 402.5099,-90.476 391.3552,-87.8046 326.3408,-72.2346 307.1245,-78.4005 240.9364,-87.8046 237.7399,-88.2588 234.4635,-88.8654 231.1889,-89.5743"/>
<polygon fill="#000000" stroke="#000000" points="230.333,-86.1804 221.452,-91.9577 231.9974,-92.9797 230.333,-86.1804"/>
<text text-anchor="middle" x="316.1458" y="-92.8046" font-family="Times,serif" font-size="14.00" fill="#000000">i=[0&#45;9]/o=1 if left=0 else 0</text>
</g>
<!-- cal&#45;&gt;has_left -->
<g id="edge10" class="edge">
<title>cal&#45;&gt;has_left</title>
<path fill="none" stroke="#000000" d="M461.9492,-102.6589C471.1575,-97.9058 482.3782,-92.5754 492.9074,-88.8046 534.8682,-73.7772 547.9992,-79.1216 590.4706,-65.6046 594.2492,-64.402 598.1277,-63.0706 602.0055,-61.6695"/>
<polygon fill="#000000" stroke="#000000" points="603.4518,-64.8652 611.5858,-58.0763 600.9935,-58.311 603.4518,-64.8652"/>
<text text-anchor="middle" x="541.689" y="-93.8046" font-family="Times,serif" font-size="14.00" fill="#000000">i=(&amp;&amp;left=0/o=0</text>
</g>
<!-- cal&#45;&gt;illegal -->
<g id="edge11" class="edge">
<title>cal&#45;&gt;illegal</title>
<path fill="none" stroke="#000000" d="M464.4867,-115.2516C525.37,-119.7371 695.0317,-132.2366 776.8805,-138.2667"/>
<polygon fill="#000000" stroke="#000000" points="776.6551,-141.7595 786.8852,-139.0038 777.1694,-134.7784 776.6551,-141.7595"/>
<text text-anchor="middle" x="650.0752" y="-135.8046" font-family="Times,serif" font-size="14.00" fill="#000000">i=else/o=0</text>
</g>
</g>
</svg>
