<?xml version="1.0" encoding="UTF-8" standalone="no"?>
<!DOCTYPE svg PUBLIC "-//W3C//DTD SVG 1.1//EN"
 "http://www.w3.org/Graphics/SVG/1.1/DTD/svg11.dtd">
<!-- Generated by graphviz version 2.40.1 (20161225.0304)
 -->
<!-- Title: %0 Pages: 1 -->
<svg width="816pt" height="336pt"
 viewBox="0.00 0.00 816.16 336.27" xmlns="http://www.w3.org/2000/svg" xmlns:xlink="http://www.w3.org/1999/xlink">
<g id="graph0" class="graph" transform="scale(1 1) rotate(0) translate(4 332.2662)">
<title>%0</title>
<polygon fill="#ffffff" stroke="transparent" points="-4,4 -4,-332.2662 812.1581,-332.2662 812.1581,4 -4,4"/>
<!-- S0 -->
<g id="node1" class="node">
<title>S0</title>
<ellipse fill="none" stroke="#000000" cx="396.2597" cy="-307.0329" rx="21.4691" ry="21.4691"/>
<text text-anchor="middle" x="396.2597" y="-302.8329" font-family="Times,serif" font-size="14.00" fill="#000000">S0</text>
</g>
<!-- S0&#45;&gt;S0 -->
<g id="edge1" class="edge">
<title>S0&#45;&gt;S0</title>
<path fill="none" stroke="#000000" d="M416.0428,-315.3547C426.2722,-316.635 435.493,-313.8611 435.493,-307.0329 435.493,-302.6587 431.7088,-299.9482 426.2994,-298.9017"/>
<polygon fill="#000000" stroke="#000000" points="426.1061,-295.3976 416.0428,-298.7112 425.976,-302.3964 426.1061,-295.3976"/>
<text text-anchor="middle" x="487.3875" y="-302.8329" font-family="Times,serif" font-size="14.00" fill="#000000">c=00/11 d=0 b=00</text>
</g>
<!-- S1 -->
<g id="node2" class="node">
<title>S1</title>
<ellipse fill="none" stroke="#000000" cx="53.2597" cy="-211.7664" rx="21.4691" ry="21.4691"/>
<text text-anchor="middle" x="53.2597" y="-207.5664" font-family="Times,serif" font-size="14.00" fill="#000000">S1</text>
</g>
<!-- S0&#45;&gt;S1 -->
<g id="edge2" class="edge">
<title>S0&#45;&gt;S1</title>
<path fill="none" stroke="#000000" d="M374.8408,-306.5298C296.5848,-304.474 29.3942,-295.4637 4.3613,-267.7997 -7.9585,-254.1849 8.499,-238.405 25.5634,-227.0669"/>
<polygon fill="#000000" stroke="#000000" points="27.7483,-229.8298 34.393,-221.5776 24.0525,-223.885 27.7483,-229.8298"/>
<text text-anchor="middle" x="48.2089" y="-255.1997" font-family="Times,serif" font-size="14.00" fill="#000000">c=01 d=0 b=00</text>
</g>
<!-- S2 -->
<g id="node3" class="node">
<title>S2</title>
<ellipse fill="none" stroke="#000000" cx="335.2597" cy="-116.4998" rx="21.4691" ry="21.4691"/>
<text text-anchor="middle" x="335.2597" y="-112.2998" font-family="Times,serif" font-size="14.00" fill="#000000">S2</text>
</g>
<!-- S0&#45;&gt;S2 -->
<g id="edge3" class="edge">
<title>S0&#45;&gt;S2</title>
<path fill="none" stroke="#000000" d="M375.0052,-304.9615C337.5565,-300.0363 260.6389,-283.9203 227.3613,-232.9997 217.0361,-217.2003 218.5668,-207.233 227.3613,-190.5331 243.6937,-159.5196 279.532,-138.9976 305.4316,-127.5861"/>
<polygon fill="#000000" stroke="#000000" points="306.9399,-130.749 314.8099,-123.6557 304.2342,-124.293 306.9399,-130.749"/>
<text text-anchor="middle" x="271.2089" y="-207.5664" font-family="Times,serif" font-size="14.00" fill="#000000">c=10 d=0 b=00</text>
</g>
<!-- S1&#45;&gt;S0 -->
<g id="edge4" class="edge">
<title>S1&#45;&gt;S0</title>
<path fill="none" stroke="#000000" d="M67.9286,-227.4271C82.155,-242.2342 103.0558,-262.8964 113.3613,-267.7997 157.3805,-288.7435 300.6695,-300.6596 364.7686,-305.0604"/>
<polygon fill="#000000" stroke="#000000" points="364.8523,-308.5737 375.0636,-305.749 365.3195,-301.5893 364.8523,-308.5737"/>
<text text-anchor="middle" x="157.2089" y="-255.1997" font-family="Times,serif" font-size="14.00" fill="#000000">c=11 d=0 b=01</text>
</g>
<!-- S1&#45;&gt;S1 -->
<g id="edge5" class="edge">
<title>S1&#45;&gt;S1</title>
<path fill="none" stroke="#000000" d="M73.0428,-220.0882C83.2722,-221.3684 92.493,-218.5945 92.493,-211.7664 92.493,-207.3921 88.7088,-204.6817 83.2994,-203.6351"/>
<polygon fill="#000000" stroke="#000000" points="83.1061,-200.131 73.0428,-203.4446 82.976,-207.1298 83.1061,-200.131"/>
<text text-anchor="middle" x="135.4422" y="-207.5664" font-family="Times,serif" font-size="14.00" fill="#000000">c=00 d=0 b=00</text>
</g>
<!-- S1&#45;&gt;S2 -->
<g id="edge6" class="edge">
<title>S1&#45;&gt;S2</title>
<path fill="none" stroke="#000000" d="M66.4627,-195.0328C77.5641,-182.1797 94.5958,-165.0934 113.3613,-155.7331 146.2768,-139.3147 250.5646,-125.8477 303.6115,-119.855"/>
<polygon fill="#000000" stroke="#000000" points="304.2524,-123.3055 313.8056,-118.7243 303.4807,-116.3481 304.2524,-123.3055"/>
<text text-anchor="middle" x="157.2089" y="-159.9331" font-family="Times,serif" font-size="14.00" fill="#000000">c=01 d=0 b=00</text>
</g>
<!-- S3 -->
<g id="node4" class="node">
<title>S3</title>
<ellipse fill="none" stroke="#000000" cx="535.2597" cy="-21.2333" rx="21.4691" ry="21.4691"/>
<text text-anchor="middle" x="535.2597" y="-17.0333" font-family="Times,serif" font-size="14.00" fill="#000000">S3</text>
</g>
<!-- S1&#45;&gt;S3 -->
<g id="edge7" class="edge">
<title>S1&#45;&gt;S3</title>
<path fill="none" stroke="#000000" d="M61.3146,-191.8084C66.88,-180.064 75.2635,-165.6231 86.2597,-155.7331 134.5692,-112.2835 157.8572,-116.2171 219.3613,-95.2666 321.2603,-60.556 447.0639,-36.4121 504.2969,-26.4019"/>
<polygon fill="#000000" stroke="#000000" points="504.9058,-29.8487 514.1644,-24.6979 503.7146,-22.9508 504.9058,-29.8487"/>
<text text-anchor="middle" x="263.2089" y="-112.2998" font-family="Times,serif" font-size="14.00" fill="#000000">c=10 d=0 b=00</text>
</g>
<!-- S2&#45;&gt;S0 -->
<g id="edge8" class="edge">
<title>S2&#45;&gt;S0</title>
<path fill="none" stroke="#000000" d="M335.0507,-137.7611C335.4444,-161.6171 338.0011,-201.145 349.3613,-232.9997 355.6499,-250.6333 366.728,-268.4193 376.5386,-282.1373"/>
<polygon fill="#000000" stroke="#000000" points="373.9794,-284.563 382.7395,-290.5221 379.6075,-280.4008 373.9794,-284.563"/>
<text text-anchor="middle" x="392.2089" y="-207.5664" font-family="Times,serif" font-size="14.00" fill="#000000">c=11 d=0 b=10</text>
</g>
<!-- S2&#45;&gt;S0 -->
<g id="edge9" class="edge">
<title>S2&#45;&gt;S0</title>
<path fill="none" stroke="#000000" d="M355.0938,-124.4646C379.1463,-135.3391 418.5408,-157.3534 435.2597,-190.5331 450.3898,-220.5596 432.0978,-257.7819 415.808,-281.9522"/>
<polygon fill="#000000" stroke="#000000" points="412.8726,-280.0416 409.9628,-290.2291 418.5904,-284.0797 412.8726,-280.0416"/>
<text text-anchor="middle" x="483.2089" y="-207.5664" font-family="Times,serif" font-size="14.00" fill="#000000">c=10 d=1 b=00</text>
</g>
<!-- S2&#45;&gt;S2 -->
<g id="edge10" class="edge">
<title>S2&#45;&gt;S2</title>
<path fill="none" stroke="#000000" d="M355.0428,-124.8216C365.2722,-126.1019 374.493,-123.328 374.493,-116.4998 374.493,-112.1256 370.7088,-109.4151 365.2994,-108.3686"/>
<polygon fill="#000000" stroke="#000000" points="365.1061,-104.8645 355.0428,-108.1781 364.976,-111.8633 365.1061,-104.8645"/>
<text text-anchor="middle" x="417.4422" y="-112.2998" font-family="Times,serif" font-size="14.00" fill="#000000">c=00 d=0 b=00</text>
</g>
<!-- S2&#45;&gt;S3 -->
<g id="edge11" class="edge">
<title>S2&#45;&gt;S3</title>
<path fill="none" stroke="#000000" d="M353.6773,-105.1889C373.4618,-93.2779 406.0214,-74.3605 435.3613,-60.4666 458.4114,-49.5511 485.3711,-39.0923 505.4705,-31.7223"/>
<polygon fill="#000000" stroke="#000000" points="506.8081,-34.9604 515.0184,-28.264 504.4242,-28.3788 506.8081,-34.9604"/>
<text text-anchor="middle" x="478.2089" y="-64.6666" font-family="Times,serif" font-size="14.00" fill="#000000">c=01 d=0 b=00</text>
</g>
<!-- S3&#45;&gt;S0 -->
<g id="edge13" class="edge">
<title>S3&#45;&gt;S0</title>
<path fill="none" stroke="#000000" d="M535.3256,-42.5196C535.4106,-94.6313 535.1318,-224.96 530.2597,-232.9997 507.6379,-270.3288 458.8947,-290.2312 426.8539,-299.7034"/>
<polygon fill="#000000" stroke="#000000" points="425.7871,-296.3673 417.0923,-302.4212 427.6646,-303.1108 425.7871,-296.3673"/>
<text text-anchor="middle" x="577.2089" y="-159.9331" font-family="Times,serif" font-size="14.00" fill="#000000">c=01 d=1 b=00</text>
</g>
<!-- S3&#45;&gt;S0 -->
<g id="edge14" class="edge">
<title>S3&#45;&gt;S0</title>
<path fill="none" stroke="#000000" d="M552.2407,-34.0808C583.7041,-59.5566 645.8091,-118.6739 622.2597,-172.5331 597.2785,-229.667 573.1372,-236.4061 519.2597,-267.7997 490.3237,-284.6602 453.2652,-295.2042 427.4225,-301.0614"/>
<polygon fill="#000000" stroke="#000000" points="426.4657,-297.6872 417.4301,-303.2197 427.9437,-304.5294 426.4657,-297.6872"/>
<text text-anchor="middle" x="669.2089" y="-159.9331" font-family="Times,serif" font-size="14.00" fill="#000000">c=10 d=1 b=01</text>
</g>
<!-- S3&#45;&gt;S0 -->
<g id="edge15" class="edge">
<title>S3&#45;&gt;S0</title>
<path fill="none" stroke="#000000" d="M555.6847,-27.1841C611.4606,-44.5419 759.4007,-98.6009 716.2597,-172.5331 655.8611,-276.0404 496.2032,-299.8984 427.9414,-305.3921"/>
<polygon fill="#000000" stroke="#000000" points="427.5212,-301.9132 417.7998,-306.1255 428.0262,-308.895 427.5212,-301.9132"/>
<text text-anchor="middle" x="765.2089" y="-159.9331" font-family="Times,serif" font-size="14.00" fill="#000000">c=11 d=0 b=11</text>
</g>
<!-- S3&#45;&gt;S3 -->
<g id="edge12" class="edge">
<title>S3&#45;&gt;S3</title>
<path fill="none" stroke="#000000" d="M555.0428,-29.5551C565.2722,-30.8353 574.493,-28.0614 574.493,-21.2333 574.493,-16.859 570.7088,-14.1486 565.2994,-13.102"/>
<polygon fill="#000000" stroke="#000000" points="565.1061,-9.5979 555.0428,-12.9115 564.976,-16.5967 565.1061,-9.5979"/>
<text text-anchor="middle" x="617.4422" y="-17.0333" font-family="Times,serif" font-size="14.00" fill="#000000">c=00 d=0 b=00</text>
</g>
</g>
</svg>
