<?xml version="1.0" encoding="UTF-8" standalone="no"?>
<!DOCTYPE svg PUBLIC "-//W3C//DTD SVG 1.1//EN"
 "http://www.w3.org/Graphics/SVG/1.1/DTD/svg11.dtd">
<!-- Generated by graphviz version 2.40.1 (20161225.0304)
 -->
<!-- Title: %0 Pages: 1 -->
<svg width="2077pt" height="1852pt"
 viewBox="0.00 0.00 2077.07 1852.20" xmlns="http://www.w3.org/2000/svg" xmlns:xlink="http://www.w3.org/1999/xlink">
<g id="graph0" class="graph" transform="scale(1 1) rotate(0) translate(4 1848.2026)">
<title>%0</title>
<polygon fill="#ffffff" stroke="transparent" points="-4,4 -4,-1848.2026 2073.0664,-1848.2026 2073.0664,4 -4,4"/>
<!-- start -->
<g id="node1" class="node">
<title>start</title>
<ellipse fill="none" stroke="#000000" cx="67.7712" cy="-1102.4026" rx="27.8228" ry="27.8228"/>
<text text-anchor="middle" x="67.7712" y="-1098.2026" font-family="Times,serif" font-size="14.00" fill="#000000">start</text>
</g>
<!-- start&#45;&gt;start -->
<g id="edge1" class="edge">
<title>start&#45;&gt;start</title>
<path fill="none" stroke="#000000" d="M53.8059,-1126.6109C26.4481,-1186.8356 31.1032,-1274.0635 67.7712,-1274.0635 102.5771,-1274.0635 108.5389,-1195.4698 85.6567,-1135.9797"/>
<polygon fill="#000000" stroke="#000000" points="88.8253,-1134.4849 81.7365,-1126.6109 82.3678,-1137.1869 88.8253,-1134.4849"/>
<text text-anchor="middle" x="67.7712" y="-1278.2635" font-family="Times,serif" font-size="14.00" fill="#000000">input=[;space]/output=0</text>
</g>
<!-- int -->
<g id="node2" class="node">
<title>int</title>
<ellipse fill="none" stroke="#000000" cx="400.02" cy="-456.4026" rx="21.4672" ry="21.4672"/>
<text text-anchor="middle" x="400.02" y="-452.2026" font-family="Times,serif" font-size="14.00" fill="#000000">int</text>
</g>
<!-- start&#45;&gt;int -->
<g id="edge2" class="edge">
<title>start&#45;&gt;int</title>
<path fill="none" stroke="#000000" d="M73.2337,-1074.9061C83.7863,-1024.8485 109.5147,-916.2032 149.4321,-831.6026 216.8129,-688.7964 333.4583,-538.2441 380.0012,-480.6948"/>
<polygon fill="#000000" stroke="#000000" points="382.7532,-482.858 386.3453,-472.8907 377.3216,-478.4425 382.7532,-482.858"/>
<text text-anchor="middle" x="237.1099" y="-835.6026" font-family="Times,serif" font-size="14.00" fill="#000000">input=i/output=0&amp;&amp;int_flag=0</text>
</g>
<!-- illegal -->
<g id="node3" class="node">
<title>illegal</title>
<ellipse fill="none" stroke="#000000" cx="2033.8933" cy="-957.4026" rx="35.347" ry="35.347"/>
<text text-anchor="middle" x="2033.8933" y="-953.2026" font-family="Times,serif" font-size="14.00" fill="#000000">illegal</text>
</g>
<!-- start&#45;&gt;illegal -->
<g id="edge3" class="edge">
<title>start&#45;&gt;illegal</title>
<path fill="none" stroke="#000000" d="M69.1261,-1130.2707C74.3322,-1228.5641 95.5249,-1557.9086 149.4321,-1646.4026 220.9059,-1763.7338 262.6333,-1827.4026 400.02,-1827.4026 400.02,-1827.4026 400.02,-1827.4026 1701.7941,-1827.4026 1836.4352,-1827.4026 1876.7036,-1762.6005 1944.7203,-1646.4026 2009.1523,-1536.3285 2027.9857,-1137.8859 2032.587,-1002.6619"/>
<polygon fill="#000000" stroke="#000000" points="2036.0859,-1002.7491 2032.9182,-992.639 2029.0897,-1002.5179 2036.0859,-1002.7491"/>
<text text-anchor="middle" x="1045.6833" y="-1831.6026" font-family="Times,serif" font-size="14.00" fill="#000000">input=else/output=0</text>
</g>
<!-- int&#45;&gt;int -->
<g id="edge4" class="edge">
<title>int&#45;&gt;int</title>
<path fill="none" stroke="#000000" d="M394.8203,-477.3843C383.2458,-535.4045 384.979,-621.6349 400.02,-621.6349 414.2091,-621.6349 416.5553,-544.8962 407.0585,-487.4939"/>
<polygon fill="#000000" stroke="#000000" points="410.4528,-486.5966 405.2198,-477.3843 403.5657,-487.8492 410.4528,-486.5966"/>
<text text-anchor="middle" x="400.02" y="-625.8349" font-family="Times,serif" font-size="14.00" fill="#000000">input=n&amp;&amp;int_flag=0/output=0&amp;&amp;int_flag=1</text>
</g>
<!-- int&#45;&gt;int -->
<g id="edge5" class="edge">
<title>int&#45;&gt;int</title>
<path fill="none" stroke="#000000" d="M394.0435,-476.862C366.1529,-584.4441 368.145,-765.6349 400.02,-765.6349 430.9301,-765.6349 433.7392,-595.2486 408.4475,-486.828"/>
<polygon fill="#000000" stroke="#000000" points="411.7835,-485.7369 405.9966,-476.862 404.986,-487.4086 411.7835,-485.7369"/>
<text text-anchor="middle" x="400.02" y="-769.8349" font-family="Times,serif" font-size="14.00" fill="#000000">input=t&amp;&amp;int_flag=0/output=0&amp;&amp;int_flag=2</text>
</g>
<!-- int_base_space -->
<g id="node4" class="node">
<title>int_base_space</title>
<ellipse fill="none" stroke="#000000" cx="721.0739" cy="-456.4026" rx="69.4819" ry="69.4819"/>
<text text-anchor="middle" x="721.0739" y="-452.2026" font-family="Times,serif" font-size="14.00" fill="#000000">int_base_space</text>
</g>
<!-- int&#45;&gt;int_base_space -->
<g id="edge6" class="edge">
<title>int&#45;&gt;int_base_space</title>
<path fill="none" stroke="#000000" d="M421.3339,-456.4026C465.4077,-456.4026 568.5403,-456.4026 641.4808,-456.4026"/>
<polygon fill="#000000" stroke="#000000" points="641.5634,-459.9027 651.5633,-456.4026 641.5633,-452.9027 641.5634,-459.9027"/>
<text text-anchor="middle" x="536.4177" y="-460.6026" font-family="Times,serif" font-size="14.00" fill="#000000">input=space/output=0</text>
</g>
<!-- illlegal -->
<g id="node5" class="node">
<title>illlegal</title>
<ellipse fill="none" stroke="#000000" cx="721.0739" cy="-205.4026" rx="37.714" ry="37.714"/>
<text text-anchor="middle" x="721.0739" y="-201.2026" font-family="Times,serif" font-size="14.00" fill="#000000">illlegal</text>
</g>
<!-- int&#45;&gt;illlegal -->
<g id="edge7" class="edge">
<title>int&#45;&gt;illlegal</title>
<path fill="none" stroke="#000000" d="M416.8293,-443.2611C466.4221,-404.4895 613.0251,-289.8752 683.0304,-235.145"/>
<polygon fill="#000000" stroke="#000000" points="685.4538,-237.6931 691.1762,-228.7766 681.1424,-232.1784 685.4538,-237.6931"/>
<text text-anchor="middle" x="536.4177" y="-399.6026" font-family="Times,serif" font-size="14.00" fill="#000000">input=else/output=1</text>
</g>
<!-- illegal&#45;&gt;start -->
<g id="edge21" class="edge">
<title>illegal&#45;&gt;start</title>
<path fill="none" stroke="#000000" d="M2029.2251,-992.5829C2017.3455,-1078.3538 1984.1035,-1295.6521 1944.7203,-1356.4026 1871.4792,-1469.3803 1836.4352,-1537.4026 1701.7941,-1537.4026 400.02,-1537.4026 400.02,-1537.4026 400.02,-1537.4026 262.6333,-1537.4026 230.1685,-1467.5635 149.4321,-1356.4026 100.9458,-1289.6447 80.3979,-1192.816 72.3834,-1140.0831"/>
<polygon fill="#000000" stroke="#000000" points="75.8414,-1139.5409 70.943,-1130.1464 68.9138,-1140.5451 75.8414,-1139.5409"/>
<text text-anchor="middle" x="1045.6833" y="-1541.6026" font-family="Times,serif" font-size="14.00" fill="#000000">input=;/output=0</text>
</g>
<!-- illegal&#45;&gt;start -->
<g id="edge22" class="edge">
<title>illegal&#45;&gt;start</title>
<path fill="none" stroke="#000000" d="M2017.528,-988.7132C1975.827,-1063.7008 1857.7536,-1247.4026 1701.7941,-1247.4026 400.02,-1247.4026 400.02,-1247.4026 400.02,-1247.4026 279.6956,-1247.4026 153.7844,-1166.5306 97.7406,-1125.58"/>
<polygon fill="#000000" stroke="#000000" points="99.7916,-1122.7436 89.6722,-1119.6054 95.6258,-1128.3692 99.7916,-1122.7436"/>
<text text-anchor="middle" x="1045.6833" y="-1251.6026" font-family="Times,serif" font-size="14.00" fill="#000000">input=[^;]/output=0</text>
</g>
<!-- int_base_space&#45;&gt;illegal -->
<g id="edge10" class="edge">
<title>int_base_space&#45;&gt;illegal</title>
<path fill="none" stroke="#000000" d="M780.6233,-492.8345C800.5756,-504.3139 823.1886,-516.5556 844.5649,-526.4026 1277.8831,-726.011 1832.1851,-897.2021 1990.1377,-944.4756"/>
<polygon fill="#000000" stroke="#000000" points="1989.3797,-947.9019 1999.9631,-947.4092 1991.3824,-941.1945 1989.3797,-947.9019"/>
<text text-anchor="middle" x="1510.7092" y="-811.6026" font-family="Times,serif" font-size="14.00" fill="#000000">input=else/output=0</text>
</g>
<!-- int_base_space&#45;&gt;int_base_space -->
<g id="edge8" class="edge">
<title>int_base_space&#45;&gt;int_base_space</title>
<path fill="none" stroke="#000000" d="M694.9315,-520.8781C678.0395,-590.6662 686.7536,-669.8935 721.0739,-669.8935 753.7855,-669.8935 763.2352,-597.9197 749.423,-530.7451"/>
<polygon fill="#000000" stroke="#000000" points="752.8145,-529.8731 747.2163,-520.8781 745.9833,-531.4009 752.8145,-529.8731"/>
<text text-anchor="middle" x="721.0739" y="-674.0935" font-family="Times,serif" font-size="14.00" fill="#000000">input=space/output=0</text>
</g>
<!-- base -->
<g id="node6" class="node">
<title>base</title>
<ellipse fill="none" stroke="#000000" cx="1348.1728" cy="-49.4026" rx="28.3893" ry="28.3893"/>
<text text-anchor="middle" x="1348.1728" y="-45.2026" font-family="Times,serif" font-size="14.00" fill="#000000">base</text>
</g>
<!-- int_base_space&#45;&gt;base -->
<g id="edge9" class="edge">
<title>int_base_space&#45;&gt;base</title>
<path fill="none" stroke="#000000" d="M753.3831,-394.6302C765.6501,-370.2328 779.3547,-341.774 790.5649,-315.4026 818.2512,-250.2714 791.6296,-212.5755 844.5649,-165.6026 980.7611,-44.7468 1217.4815,-42.4783 1309.7762,-46.7318"/>
<polygon fill="#000000" stroke="#000000" points="1309.6232,-50.2284 1319.7896,-47.2462 1309.9824,-43.2376 1309.6232,-50.2284"/>
<text text-anchor="middle" x="1045.6833" y="-169.6026" font-family="Times,serif" font-size="14.00" fill="#000000">input=[_a&#45;zA&#45;Z]/output=0&amp;&amp;num =1&amp;&amp;base_flag = 1 if input=i else 0</text>
</g>
<!-- base&#45;&gt;start -->
<g id="edge20" class="edge">
<title>base&#45;&gt;start</title>
<path fill="none" stroke="#000000" d="M1320.8963,-41.8226C1300.637,-36.6006 1272.2284,-30.1299 1246.8017,-27.4026 982.0579,.9948 882.4205,37.2989 651.583,-95.4026 397.602,-241.4085 290.6514,-265.7292 149.4321,-522.4026 97.6126,-616.5872 75.6869,-950.8198 69.6229,-1064.3465"/>
<polygon fill="#000000" stroke="#000000" points="66.1123,-1064.4593 69.0851,-1074.6285 73.1028,-1064.825 66.1123,-1064.4593"/>
<text text-anchor="middle" x="536.4177" y="-194.6026" font-family="Times,serif" font-size="14.00" fill="#000000">input=;/output=1</text>
</g>
<!-- base&#45;&gt;illegal -->
<g id="edge15" class="edge">
<title>base&#45;&gt;illegal</title>
<path fill="none" stroke="#000000" d="M1376.2753,-51.7551C1448.7179,-58.9899 1645.3868,-86.1507 1777.7137,-175.6026 1877.0277,-242.7381 1896.7778,-277.53 1944.7203,-387.4026 1986.0348,-482.0857 2018.6656,-794.2567 2029.7833,-911.9569"/>
<polygon fill="#000000" stroke="#000000" points="2026.3133,-912.4412 2030.7308,-922.0711 2033.2828,-911.7882 2026.3133,-912.4412"/>
<text text-anchor="middle" x="1701.7941" y="-179.6026" font-family="Times,serif" font-size="14.00" fill="#000000">input=else/output=0</text>
</g>
<!-- base&#45;&gt;int_base_space -->
<g id="edge14" class="edge">
<title>base&#45;&gt;int_base_space</title>
<path fill="none" stroke="#000000" d="M1336.0018,-74.9461C1319.8065,-106.3609 1288.3167,-159.329 1246.8017,-190.4026 1095.1184,-303.936 1004.6741,-230.2976 844.5649,-331.6026 817.7202,-348.5879 792.266,-372.4272 771.5193,-394.7249"/>
<polygon fill="#000000" stroke="#000000" points="768.8347,-392.4741 764.6687,-402.2155 774.0003,-397.1983 768.8347,-392.4741"/>
<text text-anchor="middle" x="1045.6833" y="-335.6026" font-family="Times,serif" font-size="14.00" fill="#000000">input=,/output=0</text>
</g>
<!-- base&#45;&gt;base -->
<g id="edge11" class="edge">
<title>base&#45;&gt;base</title>
<path fill="none" stroke="#000000" d="M1340.7461,-76.955C1328.3344,-137.2017 1330.81,-221.5966 1348.1728,-221.5966 1364.586,-221.5966 1367.6958,-146.18 1357.5022,-87.0382"/>
<polygon fill="#000000" stroke="#000000" points="1360.8931,-86.1326 1355.5994,-76.955 1354.0145,-87.4306 1360.8931,-86.1326"/>
<text text-anchor="middle" x="1348.1728" y="-225.7966" font-family="Times,serif" font-size="14.00" fill="#000000">input=[_a&#45;zA&#45;Z0&#45;9]/output=0&amp;&amp;num++&amp;&amp;base_flag = 2 if input=n&amp;&amp;base_flag=1 else 0</text>
</g>
<!-- base&#45;&gt;base -->
<g id="edge12" class="edge">
<title>base&#45;&gt;base</title>
<path fill="none" stroke="#000000" d="M1339.3222,-76.236C1307.9262,-186.8302 1310.8764,-365.5966 1348.1728,-365.5966 1384.3765,-365.5966 1388.217,-197.1514 1359.6944,-86.1255"/>
<polygon fill="#000000" stroke="#000000" points="1363.0098,-84.9775 1357.0234,-76.236 1356.2519,-86.8027 1363.0098,-84.9775"/>
<text text-anchor="middle" x="1348.1728" y="-369.7966" font-family="Times,serif" font-size="14.00" fill="#000000">input=[_a&#45;zA&#45;Z0&#45;9]/output=0&amp;&amp;num++&amp;&amp;base_flag = 3 if input=t&amp;&amp;base_flag=2 else 0</text>
</g>
<!-- base_start_space -->
<g id="node7" class="node">
<title>base_start_space</title>
<ellipse fill="none" stroke="#000000" cx="1701.7941" cy="-340.4026" rx="75.8393" ry="75.8393"/>
<text text-anchor="middle" x="1701.7941" y="-336.2026" font-family="Times,serif" font-size="14.00" fill="#000000">base_start_space</text>
</g>
<!-- base&#45;&gt;base_start_space -->
<g id="edge13" class="edge">
<title>base&#45;&gt;base_start_space</title>
<path fill="none" stroke="#000000" d="M1364.4174,-72.4635C1383.1537,-98.1179 1415.7426,-139.9561 1449.5439,-170.4026 1504.4622,-219.8702 1574.7277,-266.0608 1627.1446,-297.7719"/>
<polygon fill="#000000" stroke="#000000" points="1625.3533,-300.7788 1635.7271,-302.9315 1628.9599,-294.7794 1625.3533,-300.7788"/>
<text text-anchor="middle" x="1510.7092" y="-264.6026" font-family="Times,serif" font-size="14.00" fill="#000000">input=space/output=0</text>
</g>
<!-- base_start_space&#45;&gt;start -->
<g id="edge18" class="edge">
<title>base_start_space&#45;&gt;start</title>
<path fill="none" stroke="#000000" d="M1691.2894,-415.8416C1672.2233,-543.1929 1628.5911,-793.5078 1571.8745,-860.4026 1501.7938,-943.0597 1456.5402,-957.4026 1348.1728,-957.4026 400.02,-957.4026 400.02,-957.4026 400.02,-957.4026 279.6956,-957.4026 153.7844,-1038.2746 97.7406,-1079.2252"/>
<polygon fill="#000000" stroke="#000000" points="95.6258,-1076.436 89.6722,-1085.1998 99.7916,-1082.0615 95.6258,-1076.436"/>
<text text-anchor="middle" x="721.0739" y="-961.6026" font-family="Times,serif" font-size="14.00" fill="#000000">input=;/output=1</text>
</g>
<!-- base_start_space&#45;&gt;illegal -->
<g id="edge19" class="edge">
<title>base_start_space&#45;&gt;illegal</title>
<path fill="none" stroke="#000000" d="M1768.1248,-377.8021C1824.0086,-412.8447 1901.5563,-470.4309 1944.7203,-541.6026 1982.5904,-604.0455 2015.1836,-818.2945 2028.0397,-912.4307"/>
<polygon fill="#000000" stroke="#000000" points="2024.5924,-913.0563 2029.4016,-922.4967 2031.5292,-912.1177 2024.5924,-913.0563"/>
<text text-anchor="middle" x="1888.217" y="-545.6026" font-family="Times,serif" font-size="14.00" fill="#000000">input=else/output=0</text>
</g>
<!-- base_start_space&#45;&gt;int_base_space -->
<g id="edge16" class="edge">
<title>base_start_space&#45;&gt;int_base_space</title>
<path fill="none" stroke="#000000" d="M1626.3213,-349.3295C1444.8925,-370.789 985.6371,-425.1099 800.3713,-447.0232"/>
<polygon fill="#000000" stroke="#000000" points="799.9466,-443.549 790.427,-448.1995 800.7689,-450.5005 799.9466,-443.549"/>
<text text-anchor="middle" x="1348.1728" y="-390.6026" font-family="Times,serif" font-size="14.00" fill="#000000">input=,/output=0</text>
</g>
<!-- base_start_space&#45;&gt;base_start_space -->
<g id="edge17" class="edge">
<title>base_start_space&#45;&gt;base_start_space</title>
<path fill="none" stroke="#000000" d="M1674.3287,-411.3481C1658.6722,-482.0917 1667.8273,-560.3222 1701.7941,-560.3222 1734.1687,-560.3222 1744.0032,-489.2539 1731.2976,-421.337"/>
<polygon fill="#000000" stroke="#000000" points="1734.6881,-420.4465 1729.2594,-411.3481 1727.8294,-421.846 1734.6881,-420.4465"/>
<text text-anchor="middle" x="1701.7941" y="-564.5222" font-family="Times,serif" font-size="14.00" fill="#000000">input=space/outupt=0</text>
</g>
</g>
</svg>
